<?xml version="1.0" standalone="no"?>
<!DOCTYPE svg PUBLIC "-//W3C//DTD SVG 20010904//EN"
 "http://www.w3.org/TR/2001/REC-SVG-20010904/DTD/svg10.dtd">
<svg version="1.0" xmlns="http://www.w3.org/2000/svg"
 width="260.000000pt" height="260.000000pt" viewBox="0 0 260.000000 260.000000"
 preserveAspectRatio="xMidYMid meet">
<metadata>
Created by potrace 1.14, written by Peter Selinger 2001-2017
</metadata>
<g transform="translate(0.000000,260.000000) scale(0.100000,-0.100000)"
fill="#000000" stroke="none">
<path d="M1025 2242 c-201 -52 -330 -179 -365 -360 -19 -95 -7 -183 34 -267
33 -65 206 -297 279 -373 54 -57 142 -107 308 -177 l159 -67 -20 -29 c-26 -36
-128 -86 -205 -100 -157 -29 -393 34 -514 137 -22 20 -45 33 -51 29 -6 -4 -10
-62 -10 -144 l0 -137 147 -145 c164 -160 223 -198 379 -241 109 -29 359 -32
449 -5 172 53 284 156 336 309 17 52 20 81 17 168 -5 162 -28 202 -226 402
-180 183 -237 223 -417 293 -66 25 -130 50 -143 56 -21 8 -22 10 -8 38 9 16
32 43 53 60 131 108 392 87 608 -48 33 -21 66 -36 73 -33 9 3 12 39 12 131 l0
127 -147 145 c-159 157 -191 178 -334 220 -106 30 -316 36 -414 11z m395 -36
c36 -10 95 -32 130 -49 l65 -32 3 -103 c1 -57 -1 -102 -5 -100 -4 2 -51 24
-103 50 -232 113 -463 101 -583 -31 -40 -44 -52 -88 -44 -157 10 -96 80 -147
328 -240 210 -79 295 -122 366 -188 94 -86 134 -201 113 -332 -28 -175 -156
-307 -350 -360 -88 -24 -317 -25 -412 -1 -83 21 -181 60 -230 92 l-38 25 0
105 c0 58 3 105 7 105 3 0 20 -11 37 -24 50 -37 149 -84 224 -105 287 -79 561
23 562 212 0 114 -73 171 -355 277 -198 74 -268 113 -346 190 -58 57 -70 75
-88 134 -25 81 -27 150 -5 231 39 152 153 259 326 305 92 25 296 23 398 -4z"/>
</g>
</svg>
